<svg id="Capa_1" enable-background="new 0 0 512 512" height="512" viewBox="0 0 512 512" width="512" xmlns="http://www.w3.org/2000/svg"><g><path d="m14.213 481.433h219.791c7.837 0 14.213-6.376 14.213-14.213v-170.937c0-4.142-3.358-7.5-7.5-7.5s-7.5 3.358-7.5 7.5v9.103c-29.915-3.447-53.723-27.254-57.17-57.169h57.17v13.066c0 4.142 3.358 7.5 7.5 7.5s7.5-3.358 7.5-7.5v-13.067h219.003c7.837 0 14.213-6.376 14.213-14.213v-219.79c0-7.837-6.376-14.213-14.213-14.213h-219.79c-2.426 0-4.713.611-6.713 1.688-2-1.077-4.287-1.688-6.713-1.688h-219.791c-7.837 0-14.213 6.376-14.213 14.213v219.791c0 2.427.611 4.713 1.688 6.713-1.077 2-1.688 4.287-1.688 6.713v219.79c0 7.837 6.376 14.213 14.213 14.213zm.787-160.966c38.194-3.563 68.688-34.056 72.251-72.25h29.103c-3.695 54.203-47.151 97.658-101.354 101.353zm0-144.42c29.915 3.447 53.723 27.254 57.17 57.169h-57.17zm218.217 57.169h-57.17c3.447-29.915 27.254-53.722 57.17-57.169zm0-72.25c-38.194 3.563-68.688 34.056-72.251 72.25h-29.103c3.695-54.203 47.15-97.658 101.354-101.353zm-145.966 72.25c-3.563-38.194-34.057-68.687-72.251-72.25v-29.103c54.203 3.695 97.659 47.15 101.354 101.353zm-15.081 15.001c-3.447 29.915-27.254 53.722-57.17 57.169v-57.169zm51.938 35.01c12.541 34.294 39.804 61.557 74.098 74.098-34.294 12.541-61.557 39.804-74.098 74.098-12.541-34.294-39.804-61.557-74.098-74.098 34.294-12.541 61.557-39.804 74.098-74.098zm0-85.02c-12.541-34.294-39.804-61.557-74.098-74.098 34.294-12.541 61.557-39.804 74.098-74.098 12.541 34.294 39.804 61.557 74.098 74.098-34.293 12.541-61.556 39.804-74.098 74.098zm-109.108 211.057c29.915 3.447 53.723 27.254 57.17 57.169h-57.17zm72.251 57.169c-3.563-38.194-34.057-68.687-72.251-72.25v-29.103c54.203 3.695 97.659 47.15 101.354 101.354h-29.103zm145.966-101.353v29.103c-38.194 3.563-68.688 34.056-72.251 72.25h-29.103c3.695-54.203 47.151-97.659 101.354-101.353zm0 101.353h-57.17c3.448-29.913 27.257-53.721 57.17-57.169zm0-145.966v29.103c-54.203-3.695-97.659-47.15-101.354-101.353h29.103c3.563 38.194 34.057 68.687 72.251 72.25zm15-144.42c29.915 3.447 53.722 27.254 57.169 57.169h-57.169zm72.25 57.169c-3.563-38.194-34.056-68.687-72.25-72.25v-29.103c54.203 3.695 97.658 47.15 101.353 101.353zm145.966-72.25c-38.194 3.563-68.688 34.056-72.251 72.25h-29.102c3.695-54.203 47.15-97.658 101.354-101.353v29.103zm-57.17 72.25c3.447-29.915 27.254-53.722 57.17-57.169v57.169zm57.17-161.046c-29.915-3.447-53.723-27.254-57.17-57.17h57.17zm-72.251-57.17c3.563 38.194 34.057 68.688 72.251 72.251v29.103c-54.203-3.695-97.659-47.151-101.353-101.354zm-84.513 86.844c2.656 3.179 7.385 3.603 10.564.948 17.038-14.231 29.707-32.461 37.102-52.754 12.546 34.281 39.803 61.533 74.088 74.07-34.294 12.541-61.557 39.804-74.098 74.098-12.537-34.282-39.785-61.538-74.061-74.085 1.576-.576 3.143-1.184 4.701-1.826 3.83-1.578 5.655-5.962 4.078-9.792-1.578-3.83-5.959-5.655-9.792-4.078-10.874 4.48-22.292 7.138-34.034 7.93v-29.104c38.194-3.563 68.687-34.057 72.25-72.251h29.102c-2.022 29.604-15.965 57.079-38.952 76.28-3.179 2.656-3.603 7.385-.948 10.564zm-61.452-29.674v-57.17h57.169c-3.447 29.915-27.254 53.723-57.169 57.17zm-15 0c-29.915-3.447-53.723-27.254-57.17-57.17h57.17zm-72.251-57.17c3.563 38.194 34.057 68.688 72.251 72.251v29.103c-54.203-3.695-97.659-47.151-101.354-101.354zm-145.966 101.354v-29.103c38.194-3.563 68.688-34.057 72.251-72.251h29.103c-3.695 54.203-47.151 97.659-101.354 101.354zm57.17-101.354c-3.447 29.915-27.255 53.723-57.17 57.17v-57.17z"/><path d="m497.787 263.783h-219.79c-7.837 0-14.213 6.376-14.213 14.213v219.79c0 7.837 6.376 14.213 14.213 14.213h219.791c7.837 0 14.213-6.376 14.213-14.213v-219.79c-.001-7.837-6.377-14.213-14.214-14.213zm-.787 72.17c-29.915-3.447-53.723-27.254-57.17-57.17h57.17zm-72.251-57.17c3.563 38.194 34.057 68.688 72.251 72.251v29.103c-54.203-3.695-97.659-47.15-101.354-101.354zm37.241 109.109c-34.294 12.541-61.557 39.804-74.098 74.098-12.541-34.294-39.804-61.557-74.098-74.098 34.294-12.541 61.557-39.804 74.098-74.098 12.541 34.293 39.804 61.556 74.098 74.098zm-183.207-7.755v-29.103c38.194-3.563 68.688-34.057 72.251-72.251h29.103c-3.695 54.203-47.151 97.659-101.354 101.354zm57.17-101.354c-3.447 29.915-27.254 53.723-57.17 57.17v-57.17zm-57.17 161.047c29.915 3.447 53.723 27.254 57.17 57.17h-57.17zm72.251 57.17c-3.563-38.194-34.057-68.688-72.251-72.251v-29.103c54.203 3.695 97.659 47.15 101.354 101.354zm88.799 0c1.526-13.202 7.058-25.661 15.957-35.689 2.749-3.098 2.466-7.838-.632-10.588-3.099-2.749-7.838-2.466-10.588.632-11.339 12.778-18.236 28.761-19.819 45.645h-29.105c3.695-54.203 47.15-97.659 101.354-101.354v29.1c-6.864.637-13.584 2.151-20.061 4.524-3.889 1.425-5.887 5.733-4.461 9.623s5.734 5.886 9.623 4.461c4.817-1.765 9.805-2.944 14.899-3.527v57.173z"/><path d="m118.389 90.311-28.084 28.084c-3.147 3.154-3.145 8.283.006 11.433l28.079 28.079c3.127 3.128 8.255 3.191 11.438 0l28.073-28.073c3.166-3.16 3.169-8.28.005-11.444l-28.079-28.079c-3.15-3.151-8.279-3.154-11.438 0zm5.719 52.101-18.304-18.303 18.304-18.304 18.303 18.304z"/><path d="m350.887 157.9c3.19 3.196 8.319 3.137 11.444.005l28.079-28.079c3.15-3.15 3.153-8.279 0-11.438l-28.079-28.079c-3.159-3.16-8.277-3.162-11.438 0l-28.079 28.079c-3.191 3.191-3.129 8.316 0 11.438zm5.725-52.095 18.304 18.304-18.304 18.303-18.303-18.303z"/><path d="m382.172 354.094-28.078 28.078c-3.154 3.153-3.154 8.285 0 11.438.39.39 28.468 28.468 28.083 28.084 3.143 3.136 8.27 3.151 11.433-.006l28.084-28.084c3.144-3.151 3.144-8.277-.006-11.433l-28.079-28.078c-3.151-3.152-8.283-3.152-11.437.001zm5.72 52.102-18.304-18.304 18.304-18.304 18.304 18.304z"/><path d="m118.395 391.128c3.143 3.136 8.27 3.151 11.433-.006l28.072-28.072c3.196-3.19 3.137-8.319.005-11.444l-28.078-28.079c-3.153-3.153-8.285-3.153-11.438 0l-28.079 28.079c-3.16 3.159-3.162 8.277 0 11.438 26.469 26.469 28.01 27.984 28.085 28.084zm5.713-52.107 18.303 18.304-18.303 18.304-18.304-18.304z"/></g></svg>