<?xml version="1.0" encoding="iso-8859-1"?>
<!-- Generator: Adobe Illustrator 19.0.0, SVG Export Plug-In . SVG Version: 6.00 Build 0)  -->
<svg version="1.1" id="Capa_1" xmlns="http://www.w3.org/2000/svg" xmlns:xlink="http://www.w3.org/1999/xlink" x="0px" y="0px"
	 viewBox="0 0 512.001 512.001" style="enable-background:new 0 0 512.001 512.001;" xml:space="preserve">
<g>
	<g>
		<path d="M472.572,375.124c-6.846-4.838-16.317-3.21-21.155,3.636c-0.064,0.089-6.898,9.21-19.738,15.095
			c-18.24,8.359-39.485,6.31-63.143-6.093c-0.94-0.493-1.891-0.984-2.846-1.473V108.217c0-42.932,34.929-77.86,77.86-77.86
			c8.383,0,15.179-6.796,15.179-15.179C458.728,6.796,451.932,0,443.549,0c-59.672,0-108.217,48.546-108.217,108.217v46.355H97.923
			v-46.355c0-42.931,34.928-77.859,77.86-77.859c8.383,0,15.179-6.796,15.179-15.179c0-8.383-6.796-15.179-15.179-15.179
			c-59.671,0-108.217,48.546-108.217,108.217v266.28c-8.469,3.299-17.042,6.931-25.723,10.926
			c-7.615,3.505-10.946,12.52-7.442,20.135c3.506,7.615,12.521,10.946,20.136,7.441c130.596-60.119,235.171-32.286,299.902,1.649
			c20.54,10.768,38.594,14.561,53.843,14.56c14.731,0,26.847-3.542,36.044-7.757c20.259-9.286,30.752-23.573,31.881-25.172
			C481.046,389.433,479.418,379.962,472.572,375.124z M335.332,372.423c-59.751-24.037-140.842-37.98-237.409-8.469v-72.017h237.409
			V372.423z M335.332,261.58H97.923v-76.65h237.409V261.58z"/>
	</g>
</g>
<g>
	<g>
		<path d="M472.572,457.917c-6.846-4.837-16.317-3.21-21.155,3.636c-0.064,0.089-6.898,9.21-19.738,15.095
			c-18.24,8.36-39.485,6.309-63.143-6.093c-70.766-37.098-184.889-67.62-326.692-2.339c-7.615,3.505-10.946,12.52-7.442,20.135
			c3.506,7.615,12.52,10.946,20.135,7.441c130.596-60.119,235.17-32.286,299.902,1.649c20.54,10.768,38.594,14.561,53.843,14.56
			c14.731,0,26.847-3.542,36.044-7.757c20.259-9.286,30.752-23.573,31.881-25.172C481.046,472.226,479.418,462.755,472.572,457.917z
			"/>
	</g>
</g>
<g>
</g>
<g>
</g>
<g>
</g>
<g>
</g>
<g>
</g>
<g>
</g>
<g>
</g>
<g>
</g>
<g>
</g>
<g>
</g>
<g>
</g>
<g>
</g>
<g>
</g>
<g>
</g>
<g>
</g>
</svg>
