<?xml version="1.0" encoding="iso-8859-1"?>
<!-- Generator: Adobe Illustrator 19.0.0, SVG Export Plug-In . SVG Version: 6.00 Build 0)  -->
<svg version="1.1" id="Capa_1" xmlns="http://www.w3.org/2000/svg" xmlns:xlink="http://www.w3.org/1999/xlink" x="0px" y="0px"
	 viewBox="0 0 512 512" style="enable-background:new 0 0 512 512;" xml:space="preserve">
<g>
	<g>
		<path stroke="#ffffff" fill="#ffffff" d="M418.32,137.139V97.593c0-7.496,6.097-13.592,13.592-13.592h18.071c4.164,0,7.539-3.375,7.539-7.539
			s-3.374-7.539-7.539-7.539h-18.07c-15.809,0-28.67,12.861-28.67,28.67v33.573c-15.993-5.405-32.912-8.272-50.259-8.393v-25.18
			c0-7.496,6.097-13.592,13.592-13.592h18.071c4.164,0,7.539-3.375,7.539-7.539s-3.374-7.539-7.539-7.539h-18.071
			c-15.809,0-28.67,12.861-28.67,28.67v25.768c-27.888,2.397-54.467,11.988-77.575,28.105c-2.564,1.787-6.129,1.788-8.692,0
			C147.495,78.828,0.95,151.707,0.002,281.707c0.297,1.486-4.363,62.74,47.064,114.209c56.968,57.014,143.139,61.265,204.565,18.43
			c2.569-1.791,6.14-1.79,8.707,0c62.375,43.497,148.833,37.969,205.199-19.068c2.926-2.961,2.898-7.735-0.063-10.661
			c-2.961-2.927-7.735-2.9-10.661,0.063c-51.724,52.343-130.157,56.136-185.848,17.299c-7.773-5.422-18.121-5.463-25.957,0
			c-95.161,66.359-227.931-1.522-227.931-119.096l0.004-1.061C15.928,165.453,147.82,97.438,243.015,163.833
			c7.785,5.429,18.127,5.45,25.944,0c20.563-14.342,44.168-22.956,68.95-25.312v20.192c-20.641,2.283-40.279,9.635-57.45,21.611
			c-13.467,9.389-30.941,10.012-44.804,2.545c-3.668-1.974-8.237-0.602-10.213,3.062c-1.974,3.666-0.603,8.237,3.063,10.213
			c18.426,9.924,42.03,9.48,60.578-3.453c14.625-10.201,31.292-16.572,48.826-18.785v80.59c0,4.163,3.374,7.539,7.539,7.539
			s7.539-3.375,7.539-7.539v-16.928h50.259v16.928c0,4.163,3.374,7.539,7.539,7.539c4.164,0,7.539-3.375,7.539-7.539v-59.09
			c45.803,34.948,43.337,87.201,43.393,87.474c-0.009,86.548-98.748,141.76-172.626,90.242c-19.705-13.743-46.264-13.906-66.205,0
			c-42.466,29.613-101.4,26.167-140.264-12.73c-35.294-35.319-32.085-76.95-32.357-78.315
			c0.574-78.596,81.039-130.765,152.665-100.43c3.834,1.622,8.258-0.168,9.882-4.002s-0.168-8.258-4.002-9.882
			c-81.073-34.337-172.966,24.4-173.623,114.225c0.162,0.811-3.472,48.791,36.769,89.061c44.22,44.254,111.31,48.083,159.554,14.439
			c14.553-10.148,34.232-10.269,48.956,0c83.467,58.203,196.32-3.519,196.328-102.635l-0.003-0.884
			c-0.319-43.666-23.016-82.561-58.468-104.921v-22.978c76.49,39.738,102.139,136.496,54.55,208.382
			c-2.298,3.472-1.347,8.149,2.125,10.448c3.472,2.299,8.148,1.346,10.448-2.125C539.945,288.446,507.13,177.704,418.32,137.139z
			 M403.242,222.489h-50.259v-11.057h50.259V222.489z M403.242,196.354h-50.259v-23.323c17.799,0.183,34.936,4.571,50.259,12.701
			V196.354z M403.242,168.946c-15.612-7.052-32.651-10.834-50.259-10.993V137.85c17.663,0.14,34.599,3.474,50.259,9.453V168.946z"/>
	</g>
</g>
<g>
	<g>
		<path stroke="#ffffff" fill="#ffffff" d="M155.213,245.585c-2.75-3.127-7.514-3.433-10.64-0.682c-2.504,2.202-6.315,2.284-8.933-0.044
			c-8.229-7.205-20.541-7.201-28.764,0.039c-2.538,2.234-6.342,2.239-8.886,0.001c-3.125-2.75-7.89-2.447-10.64,0.68
			c-8.932,10.151,14.533,23.799,29.488,10.638c2.546-2.243,6.35-2.228,8.883-0.001c7.374,6.882,20.156,7.621,28.809,0.011
			C157.657,253.474,157.963,248.711,155.213,245.585z"/>
	</g>
</g>
<g>
	<g>
		<path stroke="#ffffff" fill="#ffffff" d="M223.624,298.407c-2.749-3.127-7.514-3.434-10.64-0.684c-2.489,2.187-6.3,2.298-8.934-0.043
			c-8.23-7.205-20.544-7.201-28.766,0.039c-2.536,2.233-6.341,2.238-8.883,0.001c-3.125-2.752-7.891-2.448-10.64,0.678
			c-8.812,10.013,14.442,23.877,29.487,10.637c2.356-2.075,6.026-2.404,8.932,0.042
			C209.198,322.228,232.472,308.474,223.624,298.407z"/>
	</g>
</g>
<g>
	<g>
		<path stroke="#ffffff" fill="#ffffff" d="M305.974,230.151c-2.751-3.127-7.514-3.434-10.64-0.683c-2.351,2.067-6.017,2.411-8.934-0.044
			c-8.23-7.203-20.54-7.201-28.765,0.039c-2.536,2.232-6.342,2.237-8.884,0.001c-3.125-2.751-7.891-2.447-10.64,0.678
			c-8.935,10.153,14.536,23.798,29.487,10.638c2.547-2.243,6.35-2.227,8.883-0.001C291.626,254.031,314.78,240.163,305.974,230.151z
			"/>
	</g>
</g>
<g>
	<g>
		<path stroke="#ffffff" fill="#ffffff" d="M423.467,274.141c-2.749-3.127-7.513-3.435-10.64-0.685c-2.416,2.124-6.165,2.362-8.936-0.044
			c-8.227-7.202-20.54-7.201-28.763,0.041c-2.536,2.232-6.342,2.238-8.884,0c-3.125-2.751-7.891-2.447-10.64,0.678
			c-8.931,10.147,14.536,23.801,29.487,10.637c2.396-2.11,6.148-2.376,8.936,0.045C409.079,297.99,432.253,284.131,423.467,274.141z
			"/>
	</g>
</g>
<g>
	<g>
		<path stroke="#ffffff" fill="#ffffff" d="M357.565,336.746c-2.751-3.127-7.514-3.434-10.64-0.682c-2.351,2.067-6.017,2.411-8.934-0.044
			c-8.23-7.203-20.54-7.201-28.765,0.039c-2.536,2.232-6.341,2.238-8.883,0.001c-3.125-2.752-7.89-2.448-10.64,0.678
			c-8.936,10.154,14.534,23.798,29.486,10.638c2.547-2.243,6.35-2.227,8.883-0.001C343.217,360.626,366.371,346.757,357.565,336.746
			z"/>
	</g>
</g>
<g>
</g>
<g>
</g>
<g>
</g>
<g>
</g>
<g>
</g>
<g>
</g>
<g>
</g>
<g>
</g>
<g>
</g>
<g>
</g>
<g>
</g>
<g>
</g>
<g>
</g>
<g>
</g>
<g>
</g>
</svg>
