<?xml version="1.0" encoding="iso-8859-1"?>
<!-- Generator: Adobe Illustrator 19.0.0, SVG Export Plug-In . SVG Version: 6.00 Build 0)  -->
<svg version="1.1" id="Capa_1" xmlns="http://www.w3.org/2000/svg" xmlns:xlink="http://www.w3.org/1999/xlink" x="0px" y="0px"
	 viewBox="0 0 512 512" style="enable-background:new 0 0 512 512;" xml:space="preserve">
<g>
	<g>
		<path stroke="#66afca" fill="#66afca" d="M381,242.064V196c0-35.841-29.159-65-65-65h-86V0H0v230h131v86c0,35.841,29.159,65,65,65h46.064
			c2.124,72.596,61.835,131,134.936,131c74.439,0,135-60.561,135-135C512,303.899,453.596,244.188,381,242.064z M131,196v4H30V30
			h170v101h-4C160.159,131,131,160.159,131,196z M196,351c-19.299,0-35-15.701-35-35V196c0-19.299,15.701-35,35-35h120
			c19.299,0,35,15.701,35,35v48.522C297.376,255.027,255.027,297.376,244.522,351H196z M377,482c-57.897,0-105-47.103-105-105
			c0-57.897,47.103-105,105-105c57.897,0,105,47.103,105,105C482,434.897,434.897,482,377,482z"/>
	</g>
</g>
<g>
</g>
<g>
</g>
<g>
</g>
<g>
</g>
<g>
</g>
<g>
</g>
<g>
</g>
<g>
</g>
<g>
</g>
<g>
</g>
<g>
</g>
<g>
</g>
<g>
</g>
<g>
</g>
<g>
</g>
</svg>
