<?xml version="1.0" encoding="iso-8859-1"?>
<!-- Generator: Adobe Illustrator 17.1.0, SVG Export Plug-In . SVG Version: 6.00 Build 0)  -->
<!DOCTYPE svg PUBLIC "-//W3C//DTD SVG 1.1//EN" "http://www.w3.org/Graphics/SVG/1.1/DTD/svg11.dtd">
<svg version="1.1" id="Capa_1" xmlns="http://www.w3.org/2000/svg" xmlns:xlink="http://www.w3.org/1999/xlink" x="0px" y="0px"
	 viewBox="0 0 442 442" style="enable-background:new 0 0 442 442;" xml:space="preserve">
<g>
	<path d="M432,0H10C4.477,0,0,4.478,0,10v422c0,5.522,4.477,10,10,10h422c5.523,0,10-4.478,10-10V10C442,4.478,437.523,0,432,0z
		 M422,422H20V20h402V422z"/>
	<path d="M31.461,215.815c-0.05,0.082-0.102,0.163-0.15,0.246c-0.392,0.688-0.702,1.425-0.923,2.202
		c-0.027,0.095-0.049,0.19-0.073,0.285c-0.076,0.3-0.138,0.606-0.185,0.917c-0.016,0.106-0.035,0.211-0.049,0.318
		C30.033,220.183,30,220.587,30,221s0.033,0.817,0.081,1.217c0.013,0.107,0.032,0.212,0.049,0.318
		c0.048,0.311,0.11,0.616,0.185,0.917c0.024,0.095,0.046,0.19,0.073,0.285c0.221,0.777,0.531,1.514,0.923,2.202
		c0.048,0.083,0.1,0.164,0.15,0.246c0.159,0.262,0.329,0.515,0.511,0.76c0.065,0.087,0.127,0.175,0.195,0.26
		c0.242,0.306,0.497,0.601,0.772,0.875c0.023,0.023,0.05,0.043,0.073,0.066c0.26,0.254,0.536,0.491,0.823,0.716
		c0.086,0.067,0.174,0.132,0.263,0.196c0.269,0.197,0.547,0.381,0.835,0.551c0.044,0.026,0.083,0.059,0.127,0.084l0.169,0.096
		c0.002,0.001,0.005,0.003,0.007,0.004l64.758,36.792c1.56,0.887,3.256,1.308,4.931,1.308c3.48,0,6.862-1.82,8.704-5.063
		c2.728-4.802,1.047-10.906-3.755-13.634L77.844,231H211v133.156l-18.197-32.029c-2.729-4.804-8.833-6.485-13.635-3.755
		c-4.802,2.728-6.483,8.832-3.755,13.634l36.892,64.934c0.026,0.046,0.059,0.085,0.086,0.13c0.17,0.288,0.353,0.565,0.55,0.833
		c0.064,0.087,0.128,0.175,0.194,0.26c0.228,0.291,0.468,0.571,0.727,0.834c0.019,0.02,0.036,0.042,0.056,0.061
		c0.276,0.277,0.573,0.533,0.881,0.777c0.083,0.065,0.168,0.126,0.252,0.188c0.248,0.185,0.505,0.357,0.77,0.518
		c0.08,0.048,0.157,0.099,0.238,0.145c0.689,0.393,1.428,0.704,2.206,0.925c0.093,0.026,0.187,0.048,0.281,0.072
		c0.302,0.076,0.608,0.138,0.92,0.186c0.106,0.017,0.21,0.036,0.316,0.048c0.4,0.049,0.805,0.082,1.218,0.082
		s0.818-0.033,1.218-0.082c0.106-0.013,0.211-0.032,0.316-0.048c0.312-0.048,0.618-0.11,0.92-0.186
		c0.094-0.024,0.188-0.046,0.281-0.072c0.779-0.221,1.517-0.532,2.206-0.925c0.081-0.046,0.159-0.097,0.238-0.145
		c0.265-0.161,0.522-0.333,0.77-0.518c0.084-0.063,0.17-0.123,0.252-0.188c0.307-0.244,0.604-0.5,0.881-0.777
		c0.019-0.02,0.036-0.042,0.056-0.061c0.258-0.264,0.498-0.544,0.727-0.834c0.067-0.085,0.13-0.172,0.194-0.26
		c0.197-0.268,0.38-0.546,0.55-0.833c0.027-0.045,0.06-0.084,0.086-0.13l36.892-64.934c2.728-4.802,1.047-10.906-3.755-13.634
		c-4.804-2.732-10.906-1.048-13.635,3.755L231,364.156V77.844l18.197,32.029c1.842,3.243,5.224,5.063,8.704,5.063
		c1.674,0,3.371-0.421,4.931-1.308c4.802-2.728,6.483-8.832,3.755-13.634l-36.892-64.934c-0.026-0.046-0.059-0.085-0.086-0.13
		c-0.17-0.288-0.353-0.565-0.55-0.833c-0.064-0.087-0.128-0.175-0.194-0.26c-0.228-0.291-0.468-0.571-0.727-0.834
		c-0.019-0.02-0.036-0.042-0.056-0.061c-0.276-0.277-0.573-0.533-0.881-0.777c-0.083-0.065-0.168-0.126-0.252-0.188
		c-0.248-0.185-0.505-0.357-0.77-0.518c-0.08-0.048-0.157-0.099-0.238-0.145c-0.689-0.393-1.428-0.704-2.206-0.925
		c-0.093-0.026-0.187-0.048-0.281-0.072c-0.302-0.076-0.608-0.138-0.92-0.186c-0.106-0.017-0.21-0.036-0.316-0.048
		C221.818,30.033,221.413,30,221,30s-0.818,0.033-1.218,0.082c-0.106,0.013-0.211,0.032-0.316,0.048
		c-0.312,0.048-0.618,0.11-0.92,0.186c-0.094,0.024-0.188,0.046-0.281,0.072c-0.779,0.221-1.517,0.532-2.206,0.925
		c-0.081,0.046-0.159,0.097-0.238,0.145c-0.265,0.161-0.522,0.333-0.77,0.518c-0.084,0.063-0.17,0.123-0.252,0.188
		c-0.307,0.244-0.604,0.5-0.881,0.777c-0.019,0.02-0.036,0.042-0.056,0.061c-0.258,0.264-0.498,0.544-0.727,0.834
		c-0.067,0.085-0.13,0.172-0.194,0.26c-0.197,0.268-0.38,0.546-0.55,0.833c-0.027,0.045-0.06,0.084-0.086,0.13l-36.892,64.934
		c-2.728,4.802-1.047,10.906,3.755,13.634c4.802,2.729,10.906,1.047,13.635-3.755L211,77.844V211H77.844l32.029-18.197
		c4.802-2.728,6.483-8.832,3.755-13.634c-2.729-4.803-8.832-6.484-13.635-3.755l-64.758,36.792
		c-0.002,0.001-0.005,0.002-0.007,0.004l-0.169,0.096c-0.045,0.025-0.083,0.058-0.127,0.084c-0.288,0.17-0.566,0.354-0.835,0.551
		c-0.089,0.064-0.177,0.129-0.263,0.196c-0.286,0.225-0.563,0.462-0.823,0.716c-0.023,0.023-0.05,0.043-0.073,0.066
		c-0.276,0.275-0.53,0.57-0.772,0.875c-0.068,0.085-0.13,0.173-0.195,0.26C31.79,215.301,31.62,215.554,31.461,215.815z"/>
	<path d="M332.127,192.803L364.156,211H251c-5.523,0-10,4.478-10,10s4.477,10,10,10h113.156l-32.029,18.197
		c-4.802,2.728-6.483,8.832-3.755,13.634c1.842,3.243,5.224,5.063,8.704,5.063c1.674,0,3.371-0.421,4.931-1.308l64.758-36.792
		c0.002-0.001,0.005-0.002,0.007-0.004l0.169-0.096c0.045-0.025,0.083-0.058,0.127-0.084c0.288-0.17,0.566-0.354,0.835-0.551
		c0.089-0.064,0.177-0.129,0.263-0.196c0.286-0.225,0.563-0.462,0.823-0.716c0.023-0.023,0.05-0.043,0.073-0.066
		c0.276-0.275,0.53-0.57,0.772-0.875c0.068-0.085,0.13-0.173,0.195-0.26c0.182-0.245,0.352-0.498,0.511-0.76
		c0.05-0.082,0.102-0.163,0.15-0.246c0.392-0.688,0.702-1.425,0.923-2.202c0.027-0.095,0.049-0.19,0.073-0.285
		c0.076-0.3,0.138-0.606,0.185-0.917c0.016-0.106,0.035-0.211,0.049-0.318c0.049-0.399,0.081-0.804,0.081-1.217
		s-0.033-0.817-0.081-1.217c-0.013-0.107-0.032-0.212-0.049-0.318c-0.048-0.311-0.11-0.616-0.185-0.917
		c-0.024-0.095-0.046-0.19-0.073-0.285c-0.221-0.777-0.531-1.514-0.923-2.202c-0.048-0.083-0.1-0.164-0.15-0.246
		c-0.159-0.262-0.329-0.515-0.511-0.76c-0.065-0.087-0.127-0.175-0.195-0.26c-0.242-0.306-0.497-0.601-0.772-0.875
		c-0.023-0.023-0.05-0.043-0.073-0.066c-0.26-0.254-0.536-0.491-0.823-0.716c-0.086-0.067-0.174-0.132-0.263-0.196
		c-0.269-0.197-0.547-0.381-0.835-0.551c-0.044-0.026-0.083-0.059-0.127-0.084l-0.169-0.096c-0.002-0.001-0.005-0.003-0.007-0.004
		l-64.758-36.792c-4.804-2.731-10.907-1.047-13.635,3.755S327.325,190.075,332.127,192.803z"/>
</g>
<g>
</g>
<g>
</g>
<g>
</g>
<g>
</g>
<g>
</g>
<g>
</g>
<g>
</g>
<g>
</g>
<g>
</g>
<g>
</g>
<g>
</g>
<g>
</g>
<g>
</g>
<g>
</g>
<g>
</g>
</svg>
