<?xml version="1.0" encoding="iso-8859-1"?>
<!-- Generator: Adobe Illustrator 19.0.0, SVG Export Plug-In . SVG Version: 6.00 Build 0)  -->
<svg version="1.1" id="Capa_1" xmlns="http://www.w3.org/2000/svg" xmlns:xlink="http://www.w3.org/1999/xlink" x="0px" y="0px"
	 viewBox="0 0 512 512" style="enable-background:new 0 0 512 512;" xml:space="preserve">
<g>
	<g>
		<path stroke="#ffffff" fill="#ffffff" d="M496.638,0H376.319c-8.483,0-15.361,6.878-15.361,15.361v104.958H256c-8.483,0-15.361,6.878-15.361,15.361v104.958
			H135.681c-8.483,0-15.361,6.878-15.361,15.361v104.959H15.362c-8.483,0-15.361,6.878-15.361,15.361v120.319
			c0,8.484,6.878,15.361,15.361,15.361h481.278c8.484,0,15.361-6.878,15.36-15.361V15.361C511.999,6.878,505.122,0,496.638,0z
			 M481.278,481.278H30.723V391.68h104.958c8.483,0,15.361-6.878,15.361-15.361V271.361H256c8.483,0,15.361-6.878,15.361-15.361
			V151.042H376.32c8.483,0,15.361-6.878,15.361-15.361V30.722h89.597V481.278z"/>
	</g>
</g>
<g>
</g>
<g>
</g>
<g>
</g>
<g>
</g>
<g>
</g>
<g>
</g>
<g>
</g>
<g>
</g>
<g>
</g>
<g>
</g>
<g>
</g>
<g>
</g>
<g>
</g>
<g>
</g>
<g>
</g>
</svg>
