<?xml version="1.0" encoding="iso-8859-1"?>
<!-- Generator: Adobe Illustrator 19.0.0, SVG Export Plug-In . SVG Version: 6.00 Build 0)  -->
<svg version="1.1" id="Layer_1" xmlns="http://www.w3.org/2000/svg" xmlns:xlink="http://www.w3.org/1999/xlink" x="0px" y="0px"
	 viewBox="0 0 512 512" style="enable-background:new 0 0 512 512;" xml:space="preserve">
<g>
	<g>
		<g>
			<path stroke="#ffffff" fill="#ffffff" d="M191.403,383.963c-3.893-2.192-8.82-0.813-11.012,3.076c-2.19,3.89-0.814,8.82,3.076,11.011
				c22.02,12.402,47.101,18.958,72.531,18.958c25.428,0,50.507-6.555,72.527-18.955c3.89-2.191,5.269-7.121,3.077-11.011
				s-7.121-5.267-11.011-3.077c-19.605,11.04-41.941,16.876-64.595,16.876C233.343,400.84,211.007,395.004,191.403,383.963z"/>
			<path stroke="#ffffff" fill="#ffffff" d="M184.71,140.278c-47.186,25.98-76.497,75.499-76.497,129.232c0,4.465,3.619,8.084,8.084,8.084s8.084-3.62,8.084-8.084
				c0-47.838,26.104-91.93,68.126-115.068c3.912-2.155,5.336-7.071,3.183-10.982C193.538,139.551,188.62,138.125,184.71,140.278z"/>
			<path stroke="#ffffff" fill="#ffffff" d="M483.572,358.607c11.714-29.024,17.649-59.729,17.649-91.338c0-55.999-18.444-108.698-53.339-152.401
				c-2.785-3.488-7.873-4.059-11.362-1.273c-3.49,2.786-4.059,7.873-1.274,11.362c32.584,40.808,49.806,90.018,49.806,142.312
				c0,28.142-5.036,55.513-14.978,81.479l-40.219-23.174c6.309-18.734,9.504-38.315,9.504-58.307
				c0-43.618-15.633-85.864-44.019-118.954c-26.697-31.122-63.089-52.428-103.025-60.452V41.558
				c45.095,7.138,86.458,27.336,120.12,58.755c3.265,3.047,8.381,2.869,11.426-0.393c3.047-3.265,2.87-8.38-0.393-11.427
				c-37.117-34.645-82.984-56.545-132.962-63.552C285.733,10.474,272.067,0,256,0s-29.733,10.474-34.503,24.941
				c-50.148,7.034-96.154,29.06-133.313,63.88c-3.258,3.053-3.424,8.169-0.372,11.427c3.05,3.255,8.168,3.424,11.427,0.371
				c33.705-31.582,75.193-51.896,120.447-59.06v9.506c0,4.465,3.618,8.084,8.084,8.084c4.466,0,8.084-3.62,8.084-8.084V36.256
				c0-11.076,9.037-20.088,20.146-20.088c10.065,0,18.431,7.398,19.913,17.026c0.017,0.138,0.037,0.274,0.059,0.41
				c0.114,0.868,0.175,1.754,0.175,2.652v158.026c-6.418-1.767-13.174-2.711-20.146-2.711c-6.972,0-13.728,0.944-20.146,2.711
				V80.842c0-4.465-3.619-8.084-8.084-8.084s-8.084,3.62-8.084,8.084v7.022c-39.956,8.027-76.368,29.354-103.068,60.501
				C88.26,181.447,72.643,223.675,72.643,267.27c0,19.984,3.195,39.571,9.505,58.307l-6.775,3.903
				c-3.869,2.229-5.198,7.172-2.97,11.041c2.229,3.869,7.172,5.198,11.041,2.969l99.16-57.132
				c3.498,13.39,10.582,25.345,20.167,34.781l-86.333,49.741c-0.112,0.061-0.223,0.125-0.333,0.192l-50.504,29.098
				c-0.798,0.459-1.614,0.858-2.444,1.198c-0.092,0.036-0.183,0.071-0.274,0.11c-9.121,3.576-19.769,0.056-24.813-8.663
				c-2.685-4.641-3.4-10.047-2.013-15.223c1.391-5.187,4.722-9.522,9.384-12.208l12.359-7.121c3.869-2.229,5.198-7.172,2.97-11.041
				c-2.23-3.867-7.172-5.197-11.041-2.969l-7.804,4.496c-9.942-25.968-14.978-53.339-14.978-81.479
				c0-52.294,17.224-101.505,49.807-142.313c2.785-3.489,2.215-8.576-1.274-11.362s-8.576-2.216-11.362,1.273
				c-34.895,43.704-53.34,96.404-53.34,152.402c0,31.605,5.937,62.312,17.652,91.338c-3.751,4.182-6.492,9.217-7.987,14.799
				c-2.506,9.353-1.215,19.121,3.635,27.504c8.042,13.899,23.982,20.474,38.923,17.348c21.897,27.819,49.939,50.912,81.404,66.988
				C179.151,502.998,216.698,512,256,512c4.466,0,8.084-3.62,8.084-8.084c0-4.465-3.619-8.084-8.084-8.084
				c-69.734,0-133.972-30.607-177.7-84.323l40.205-23.165c34.862,39.44,84.585,61.92,137.493,61.92
				c52.907,0,102.631-22.481,137.493-61.92l8.515,4.907c3.866,2.228,8.811,0.9,11.04-2.969s0.9-8.812-2.969-11.041l-14.245-8.208
				c-0.071-0.042-0.142-0.083-0.213-0.123l-86.391-49.775c9.586-9.437,16.67-21.392,20.167-34.781l86.462,49.816
				c0.043,0.025,0.086,0.05,0.128,0.074l50.569,29.135c4.662,2.686,7.994,7.021,9.384,12.208c1.386,5.177,0.672,10.583-2.013,15.223
				c-5.024,8.687-15.615,12.217-24.713,8.702c-0.155-0.069-0.314-0.132-0.472-0.19c-0.795-0.33-1.578-0.715-2.344-1.157
				l-10.315-5.943c-3.869-2.229-8.813-0.9-11.04,2.969c-2.229,3.869-0.9,8.812,2.969,11.041l5.679,3.272
				c-37.098,45.393-90.892,75.309-149.007,82.552c-4.431,0.553-7.575,4.592-7.023,9.022c0.552,4.43,4.59,7.576,9.022,7.023
				c33.268-4.146,64.786-14.865,93.676-31.863c26.569-15.629,49.637-35.792,68.645-59.981c14.946,3.124,30.88-3.45,38.921-17.349
				c4.849-8.383,6.141-18.151,3.635-27.504C490.063,367.824,487.322,362.789,483.572,358.607z M180.185,269.09l-83.721,48.236
				c-5.082-16.131-7.654-32.93-7.654-50.057c0-78.978,54.524-146.127,130.876-162.89v96.45
				c-23.531,12.865-39.523,37.824-39.523,66.441C180.163,267.878,180.169,268.485,180.185,269.09z M379.166,380.092
				c-31.663,34.438-76.03,54.006-123.166,54.006c-47.137,0-91.503-19.568-123.166-54.006l83.682-48.214
				c11.509,7.033,25.03,11.089,39.483,11.089s27.975-4.056,39.482-11.089L379.166,380.092z M256,326.798
				c-32.902,0-59.669-26.705-59.669-59.529c0-32.825,26.767-59.53,59.669-59.53c32.902,0,59.669,26.705,59.669,59.53
				C315.669,300.093,288.902,326.798,256,326.798z M415.537,317.327l-83.722-48.237c0.015-0.606,0.023-1.213,0.023-1.822
				c0-28.617-15.992-53.576-39.523-66.441v-96.449C368.673,121.14,423.19,188.27,423.19,267.269
				C423.19,284.401,420.62,301.197,415.537,317.327z"/>
			<path stroke="#ffffff" fill="#ffffff" d="M256,236.648c-16.91,0-30.668,13.737-30.668,30.622S239.09,297.891,256,297.891s30.668-13.737,30.668-30.622
				C286.668,250.384,272.91,236.648,256,236.648z M256,281.723c-7.996,0-14.5-6.484-14.5-14.453c0-7.97,6.504-14.454,14.5-14.454
				c7.996,0,14.5,6.484,14.5,14.454C270.5,275.239,263.996,281.723,256,281.723z"/>
			<path stroke="#ffffff" fill="#ffffff" d="M327.29,140.278c-3.913-2.154-8.827-0.729-10.982,3.183c-2.153,3.911-0.729,8.827,3.183,10.98
				c42.022,23.137,68.127,67.229,68.127,115.068c0,4.465,3.618,8.084,8.084,8.084c4.466,0,8.084-3.62,8.084-8.084
				C403.787,215.777,374.475,166.258,327.29,140.278z"/>
		</g>
	</g>
</g>
<g>
</g>
<g>
</g>
<g>
</g>
<g>
</g>
<g>
</g>
<g>
</g>
<g>
</g>
<g>
</g>
<g>
</g>
<g>
</g>
<g>
</g>
<g>
</g>
<g>
</g>
<g>
</g>
<g>
</g>
</svg>
