<svg id="FLIPPERS" height="512" viewBox="0 0 128 128" width="512" xmlns="http://www.w3.org/2000/svg"><path d="m39.637 107.272c-1.648-1.548-3.7-3.475-7.586-3.475s-5.938 1.927-7.586 3.475c-1.5 1.411-2.688 2.525-5.189 2.525s-3.687-1.115-5.189-2.525c-1.648-1.548-3.7-3.475-7.585-3.475a1.75 1.75 0 0 0 0 3.5c2.5 0 3.687 1.114 5.189 2.525 1.648 1.548 3.7 3.475 7.586 3.475s5.938-1.926 7.586-3.474c1.5-1.411 2.689-2.526 5.19-2.526s3.688 1.115 5.19 2.525a12 12 0 0 0 4.528 2.992 1.727 1.727 0 0 0 .383.13 9.874 9.874 0 0 0 2.676.353c3.886 0 5.937-1.927 7.584-3.475 1.5-1.411 2.688-2.525 5.188-2.525s3.688 1.114 5.189 2.525c1.648 1.548 3.7 3.475 7.586 3.475s5.939-1.926 7.587-3.474c1.5-1.411 2.69-2.526 5.192-2.526s3.688 1.114 5.189 2.525c1.648 1.548 3.7 3.475 7.586 3.475s5.941-1.926 7.59-3.474c1.5-1.411 2.691-2.526 5.195-2.526s3.691 1.115 5.194 2.526c1.649 1.548 3.7 3.474 7.59 3.474a1.75 1.75 0 0 0 0-3.5c-2.5 0-3.691-1.115-5.195-2.526-1.649-1.548-3.7-3.474-7.59-3.474s-5.941 1.926-7.59 3.474c-1.5 1.411-2.691 2.526-5.194 2.526s-3.688-1.115-5.19-2.526c-1.648-1.548-3.7-3.474-7.586-3.474s-5.939 1.926-7.588 3.474c-1.5 1.411-2.69 2.526-5.192 2.526s-3.688-1.115-5.19-2.526a14.332 14.332 0 0 0 -3.235-2.454v-3l14.186 3.547a1.75 1.75 0 0 0 2.122-1.273l1.94-7.76a1.75 1.75 0 0 0 -1.274-2.122l-16.974-4.242v-27.933l7.418-1.856.323-.084a14.584 14.584 0 0 0 9.23-7.942 14.788 14.788 0 0 0 1.329-6.2 14.568 14.568 0 0 0 -11.176-14.316l-7.124-1.779v-21.607h5.8a1.75 1.75 0 0 0 0-3.5h-61.25a1.75 1.75 0 0 0 0 3.5h34.25v28.5h-7.75v-12.558a1.75 1.75 0 0 0 -1.75-1.75h-24.75a1.75 1.75 0 0 0 -1.75 1.75v14.308a1.75 1.75 0 0 0 1.75 1.75h34.25v15.233l-24.828 6.2-.618.168a14.614 14.614 0 0 0 -9.226 7.951 14.789 14.789 0 0 0 -1.328 6.198 14.543 14.543 0 0 0 11.175 14.311l24.825 6.209v11.758c-.368-.308-.731-.646-1.113-1.006zm-23.137-81.33h4.75v10.808h-4.75zm-3.5 10.808h-4.75v-10.808h4.75zm11.75-10.808h4.75v10.808h-4.75zm51.628 71.235-1.091 4.364-13.337-3.334v-4.633zm-14.428-55.461 4.336 1.084a3.249 3.249 0 0 1 .151 6.264l-4.487 1.122zm-17.7-33.466h14.2v42.81l-14.2 3.548zm-27.476 78.666a11.092 11.092 0 0 1 -8.524-10.916 11.318 11.318 0 0 1 1.015-4.749 10.963 10.963 0 0 1 7.014-6.038l51.055-12.765a6.749 6.749 0 0 0 -.2-13.042l-5.185-1.3v-4.642l6.273 1.566a11.115 11.115 0 0 1 8.528 10.924 11.318 11.318 0 0 1 -1.014 4.746 11.066 11.066 0 0 1 -6.974 6.019l-8.886 2.224c-.034.006-.067.017-.1.025l-17.6 4.4c-.032.006-.062.016-.093.023l-24.215 6.06a6.749 6.749 0 0 0 0 13.1l22.882 5.719v4.642zm23.976-2.254-22.035-5.506a3.249 3.249 0 0 1 0-6.3l22.035-5.518zm3.5 10.491v-28.691l14.2-3.553v40.942c-.28-.022-.55-.053-.851-.053-3.886 0-5.937 1.927-7.584 3.475-1.5 1.411-2.688 2.525-5.188 2.525-.205 0-.389-.019-.577-.033z"/><path d="m121.5 119.75c-2.5 0-3.691-1.115-5.195-2.526-1.649-1.548-3.7-3.474-7.59-3.474s-5.941 1.926-7.59 3.474c-1.5 1.411-2.691 2.526-5.194 2.526s-3.688-1.115-5.19-2.526c-1.648-1.548-3.7-3.474-7.586-3.474s-5.939 1.926-7.588 3.474c-1.5 1.411-2.69 2.526-5.192 2.526s-3.688-1.115-5.19-2.526c-1.648-1.548-3.7-3.474-7.586-3.474s-5.937 1.927-7.584 3.475c-1.5 1.411-2.688 2.525-5.188 2.525s-3.688-1.115-5.19-2.525c-1.648-1.548-3.7-3.475-7.586-3.475s-5.938 1.927-7.586 3.475c-1.5 1.411-2.688 2.525-5.189 2.525s-3.687-1.115-5.189-2.525c-1.648-1.548-3.7-3.475-7.585-3.475a1.75 1.75 0 0 0 0 3.5c2.5 0 3.687 1.114 5.189 2.525 1.648 1.548 3.7 3.475 7.586 3.475s5.938-1.926 7.586-3.474c1.5-1.411 2.689-2.526 5.19-2.526s3.688 1.115 5.19 2.525c1.648 1.548 3.7 3.475 7.586 3.475s5.937-1.927 7.584-3.475c1.5-1.411 2.688-2.525 5.188-2.525s3.688 1.114 5.189 2.525c1.648 1.548 3.7 3.475 7.586 3.475s5.939-1.926 7.587-3.474c1.5-1.411 2.69-2.526 5.192-2.526s3.688 1.114 5.189 2.525c1.648 1.548 3.7 3.475 7.586 3.475s5.941-1.926 7.59-3.474c1.5-1.411 2.691-2.526 5.195-2.526s3.691 1.115 5.194 2.526c1.649 1.548 3.7 3.474 7.59 3.474a1.75 1.75 0 0 0 0-3.5z"/></svg>